<?xml version="1.0" encoding="UTF-8" standalone="no"?>
<!-- Created with Inkscape (http://www.inkscape.org/) -->

<svg
   xmlns:dc="http://purl.org/dc/elements/1.1/"
   xmlns:cc="http://creativecommons.org/ns#"
   xmlns:rdf="http://www.w3.org/1999/02/22-rdf-syntax-ns#"
   xmlns:svg="http://www.w3.org/2000/svg"
   xmlns="http://www.w3.org/2000/svg"
   xmlns:sodipodi="http://sodipodi.sourceforge.net/DTD/sodipodi-0.dtd"
   xmlns:inkscape="http://www.inkscape.org/namespaces/inkscape"
   width="121.463mm"
   height="121.463mm"
   viewBox="0 0 121.463 121.463"
   version="1.1"
   id="svg8"
   inkscape:version="0.92.4 5da689c313, 2019-01-14"
   sodipodi:docname="sett.svg">
  <defs
     id="defs2" />
  <sodipodi:namedview
     id="base"
     pagecolor="#ffffff"
     bordercolor="#666666"
     borderopacity="1.0"
     inkscape:pageopacity="0.0"
     inkscape:pageshadow="2"
     inkscape:zoom="0.57083853"
     inkscape:cx="498.53074"
     inkscape:cy="411.45904"
     inkscape:document-units="mm"
     inkscape:current-layer="layer1"
     showgrid="true"
     inkscape:window-width="1918"
     inkscape:window-height="1048"
     inkscape:window-x="0"
     inkscape:window-y="30"
     inkscape:window-maximized="1">
    <inkscape:grid
       type="xygrid"
       id="grid834" />
  </sodipodi:namedview>
  <metadata
     id="metadata5">
    <rdf:RDF>
      <cc:Work
         rdf:about="">
        <dc:format>image/svg+xml</dc:format>
        <dc:type
           rdf:resource="http://purl.org/dc/dcmitype/StillImage" />
        <dc:title></dc:title>
      </cc:Work>
    </rdf:RDF>
  </metadata>
  <g
     inkscape:label="Layer 1"
     inkscape:groupmode="layer"
     id="layer1"
     transform="translate(0,-175.537)">
    <path
       style="fill:#16baa6;fill-opacity:1;fill-rule:evenodd;stroke:#210100;stroke-width:3.72300005;stroke-linecap:round;stroke-linejoin:round;stroke-miterlimit:4;stroke-dasharray:none;stroke-dashoffset:0;stroke-opacity:1;paint-order:normal"
       d="M 51.470879,177.39892 V 187.435 c -6.703904,1.27754 -13.073178,3.92101 -18.711526,7.76593 l -7.107576,-7.10757 -13.09584,13.09635 7.075019,7.07502 c -3.840186,5.64994 -6.475325,12.03039 -7.741129,18.74356 H 1.8615 v 18.52083 h 10.035561 c 1.277543,6.7039 3.921014,13.07317 7.765936,18.71152 l -7.10706,7.10706 13.09584,13.09636 7.075022,-7.07502 c 5.65014,3.84007 12.030765,6.47503 18.74408,7.74061 v 10.02885 h 18.52083 v -10.03608 c 6.703857,-1.27739 13.073127,-3.92068 18.711517,-7.76542 l 7.10706,7.10706 13.096354,-13.09636 -7.07502,-7.07502 c 3.84,-5.64999 6.47497,-12.03043 7.74062,-18.74356 h 10.02884 V 227.00829 H 109.565 c -1.27739,-6.70386 -3.92067,-13.07313 -7.76541,-18.71152 l 7.10705,-7.10706 -13.096354,-13.09635 -7.07503,7.07501 c -5.64998,-3.84 -12.03042,-6.47496 -18.743547,-7.74061 v -10.02884 z m 9.26041,32.05747 a 26.812237,26.812237 0 0 1 26.812317,26.81232 26.812237,26.812237 0 0 1 -26.812317,26.81231 26.812237,26.812237 0 0 1 -26.812315,-26.81231 26.812237,26.812237 0 0 1 26.812315,-26.81232 z"
       id="path836"
       inkscape:connector-curvature="0" />
  </g>
</svg>
